<?xml version="1.0" encoding="utf-8"?>
<!-- Generator: Adobe Illustrator 15.0.2, SVG Export Plug-In . SVG Version: 6.00 Build 0)  -->
<svg version="1.2" baseProfile="tiny" id="Layer_1" xmlns="http://www.w3.org/2000/svg" xmlns:xlink="http://www.w3.org/1999/xlink"
	 x="0px" y="0px" width="1417.32px" height="425.195px" viewBox="0 0 1417.32 425.195" overflow="inherit" xml:space="preserve">
<g>
	<g>
		<path fill="#ED1F24" d="M369.776,298.076c0,22.142-17.948,40.087-40.088,40.087H169.337c-22.141,0-40.088-17.945-40.088-40.087
			V137.726c0-22.142,17.947-40.088,40.088-40.088h160.351c22.14,0,40.088,17.946,40.088,40.088V298.076z"/>
	</g>
	<g>
		<g>
			<path fill="#222222" d="M574.392,133.312v30.437H473.561c-2.229,0-3.351,1.027-3.351,3.08v31.728
				c0,2.069,1.121,3.097,3.351,3.097h51.581c11.689,0,21.358,1.373,29.008,4.122c7.657,2.757,13.667,6.447,18.049,11.088
				c4.385,4.648,7.438,10.058,9.156,16.25c1.717,6.188,2.574,12.729,2.574,19.592c0,7.905-1.026,15.219-3.083,21.924
				c-2.066,6.707-5.34,12.467-9.799,17.272c-4.475,4.818-10.234,8.599-17.285,11.367c-7.054,2.736-15.557,4.091-25.526,4.091
				h-87.685v-30.41h88.719c8.769,0,14.986-2.238,18.693-6.705c3.691-4.47,5.536-10.482,5.536-18.044
				c0-6.888-1.926-12.422-5.787-16.646c-3.88-4.212-10.881-6.309-21.03-6.309h-72.466c-9.629,0-14.43-4.726-14.43-14.185v-67.564
				c0-9.454,4.8-14.184,14.43-14.184H574.392z"/>
			<path fill="#222222" d="M810.514,170.224l-14.301,107.118c-0.331,2.705-1.111,4.73-2.317,6.018
				c-1.172,1.236-3.188,1.862-5.989,1.862c-5.363,0-8.414-2.185-9.33-6.697l-18.327-82.511c-2.073-9.269-6.085-16.396-11.927-21.188
				c-5.851-4.76-14.391-7.173-25.383-7.173c-11.018,0-19.728,2.408-25.892,7.157c-6.183,4.769-10.382,11.901-12.481,21.193
				l-19.335,82.469c-0.615,2.195-1.601,3.904-2.936,5.08c-1.248,1.108-3.321,1.67-6.162,1.67c-2.981,0-5.129-0.633-6.381-1.879
				c-1.305-1.313-2.118-3.329-2.417-5.993l-12.228-107.126h-31.681l14.323,108.941c0.708,4.713,1.856,9.08,3.412,12.98
				c1.603,4,3.895,7.458,6.815,10.279c2.946,2.841,6.712,5.09,11.197,6.684c4.507,1.58,10.041,2.38,16.446,2.38
				c11.005,0,19.714-2.418,25.886-7.187c6.172-4.775,10.459-12.077,12.741-21.707l19.34-82.779c0.922-3.995,3.891-5.938,9.076-5.938
				c2.385,0,4.433,0.48,6.086,1.427c1.555,0.894,2.54,2.366,3.01,4.502l18.289,82.775c2.119,9.652,6.234,16.958,12.23,21.711
				c5.998,4.774,14.535,7.195,25.375,7.195c12.575,0,22.006-3.002,28.03-8.925c5.971-5.884,9.708-13.758,11.108-23.407
				l15.405-108.932H810.514z"/>
			<path fill="#222222" d="M874.543,133.312c7.922,0,14.49,0.739,19.742,2.194c5.254,1.464,9.4,3.869,12.498,7.224
				c3.113,3.343,5.238,7.644,6.459,12.887c1.195,5.254,1.811,11.648,1.811,19.216v132.526h-30.457V176.891
				c0-4.629-0.918-7.991-2.826-10.062c-1.887-2.053-5.166-3.08-9.797-3.08h-15.721v-30.437H874.543z"/>
			<path fill="#222222" d="M1089.879,133.312v30.437h-100.83c-2.227,0-3.359,1.027-3.359,3.08v31.731
				c0,2.065,1.133,3.093,3.359,3.093h51.57c11.674,0,21.361,1.373,28.992,4.122c7.682,2.757,13.684,6.447,18.064,11.088
				c4.383,4.648,7.449,10.058,9.16,16.25c1.719,6.188,2.578,12.729,2.578,19.592c0,7.905-1.049,15.219-3.1,21.924
				c-2.049,6.707-5.332,12.467-9.795,17.272c-4.479,4.818-10.242,8.599-17.279,11.367c-7.049,2.736-15.562,4.091-25.535,4.091
				h-87.67v-30.41h88.721c8.748,0,14.998-2.238,18.688-6.705c3.699-4.47,5.533-10.482,5.533-18.044
				c0-6.888-1.936-12.422-5.787-16.646c-3.873-4.212-10.896-6.309-21.027-6.309h-72.463c-9.625,0-14.443-4.726-14.443-14.185
				v-67.564c0-9.454,4.818-14.184,14.443-14.184H1089.879z"/>
			<path fill="#222222" d="M1266.514,133.312v30.437h-100.816c-2.234,0-3.379,1.027-3.379,3.08v31.731
				c0,2.065,1.145,3.093,3.379,3.093h51.561c11.68,0,21.369,1.373,29.008,4.122c7.66,2.757,13.684,6.447,18.045,11.088
				c4.385,4.648,7.457,10.058,9.18,16.25c1.723,6.188,2.578,12.729,2.578,19.592c0,7.905-1.055,15.219-3.117,21.924
				c-2.049,6.707-5.322,12.467-9.793,17.272c-4.467,4.818-10.227,8.599-17.289,11.367c-7.035,2.736-15.553,4.091-25.514,4.091
				h-87.691v-30.41h88.715c8.771,0,14.988-2.238,18.723-6.705c3.689-4.47,5.51-10.482,5.51-18.044
				c0-6.888-1.924-12.422-5.805-16.646c-3.844-4.212-10.869-6.309-21.02-6.309h-72.443c-9.635,0-14.436-4.726-14.436-14.185v-67.564
				c0-9.454,4.801-14.184,14.436-14.184H1266.514z"/>
		</g>
	</g>
</g>
<g>
	<g>
		<path fill="#FFFFFF" d="M293.663,137.916l-12.149,25.374c19.676,11.186,32.984,32.331,32.984,56.538
			c0,35.833-29.152,64.986-64.985,64.986c-35.834,0-64.987-29.153-64.987-64.986c0-24.206,13.311-45.347,32.988-56.531
			l-12.156-25.387c-29.108,15.753-48.929,46.559-48.929,81.918c0,51.327,41.756,93.082,93.083,93.082
			c51.325,0,93.083-41.755,93.083-93.082C342.595,184.472,322.771,153.67,293.663,137.916z"/>
		<path fill="#FFFFFF" d="M217.697,163.188l-12.137-25.393c-0.068,0.037-0.134,0.076-0.202,0.113l12.156,25.387
			C217.576,163.261,217.635,163.223,217.697,163.188z"/>
	</g>
	<g>
		<g>
			<g>
				<rect x="235.464" y="122.892" fill="#FFFFFF" width="28.097" height="123.027"/>
			</g>
		</g>
	</g>
</g>
</svg>
